# xmcd
#
# Track frame offsets:
#	150
#	15769
#	33435
#	48017
#	63254
#	79559
#	97603
#	118274
#	136482
#	153007
#	170321
#	189623
#	206322
#	222684
#	238309
#	257067
#
# Disc length: 3650 seconds
#
# Revision: 1
# Processed by: cddbd v1.5.2PL0 Copyright (c) Steve Scherf et al.
# Submitted via: audiograbber 1.83.01
#
DISCID=c90e4010
DTITLE=SheDaisy - CKC45
DYEAR=1900
DGENRE=Karaoke
TTITLE0=Little Goodbyes
TTITLE1=I Will...But
TTITLE2=Get Over Yourself
TTITLE3=Borrowed Home
TTITLE4=I Dare You
TTITLE5=5 4 3 2 Run
TTITLE6=Still Holding Out For You
TTITLE7=Lucky 4 You (I'm Just Me)
TTITLE8=This Woman Needs
TTITLE9=He's A Hero
TTITLE10=Love Goes On
TTITLE11=Mine All Mine
TTITLE12=Without A Sound
TTITLE13=Passenger Seat
TTITLE14=Come Home Soon
TTITLE15=Don't Worry 'Bout A Thing
EXTD=
EXTT0=
EXTT1=
EXTT2=
EXTT3=
EXTT4=
EXTT5=
EXTT6=
EXTT7=
EXTT8=
EXTT9=
EXTT10=
EXTT11=
EXTT12=
EXTT13=
EXTT14=
EXTT15=
PLAYORDER=
